<?xml version="1.0" standalone="no"?>
<!DOCTYPE svg PUBLIC "-//W3C//DTD SVG 20010904//EN"
 "http://www.w3.org/TR/2001/REC-SVG-20010904/DTD/svg10.dtd">
<svg version="1.0" xmlns="http://www.w3.org/2000/svg"
 width="327.000000pt" height="327.000000pt" viewBox="0 0 327.000000 327.000000"
 preserveAspectRatio="xMidYMid meet">

<g transform="translate(0.000000,327.000000) scale(0.100000,-0.100000)"
fill="#000000" stroke="none">
<path d="M2673 2860 c-3 -11 -10 -20 -15 -20 -5 0 -16 -16 -24 -36 -8 -19 -30
-50 -49 -67 -19 -18 -35 -38 -35 -45 0 -7 -11 -18 -25 -24 -14 -6 -25 -17 -25
-24 0 -7 -15 -16 -34 -19 -31 -6 -38 -3 -80 40 -25 25 -46 53 -46 60 0 8 -11
17 -25 21 -14 3 -25 13 -25 20 0 8 -8 18 -17 21 -10 4 -24 15 -31 25 -9 12
-23 18 -40 16 -26 -3 -27 -5 -30 -82 -2 -67 -6 -81 -25 -97 -27 -23 -40 -23
-77 -4 -19 10 -80 18 -170 24 -107 6 -145 12 -158 25 -16 14 -46 16 -200 16
-151 0 -182 -2 -182 -14 0 -18 -17 -23 -110 -32 -41 -3 -94 -15 -117 -25 -39
-18 -43 -23 -43 -55 0 -24 -5 -37 -17 -41 -10 -3 -25 -12 -33 -20 -45 -40 -80
-63 -94 -63 -9 0 -21 -9 -28 -20 -7 -11 -18 -20 -25 -20 -6 0 -25 -11 -41 -25
-17 -14 -35 -25 -40 -25 -6 0 -14 -9 -17 -20 -3 -11 -15 -20 -26 -20 -10 0
-19 -6 -19 -14 0 -8 -9 -18 -20 -21 -11 -3 -20 -12 -20 -20 0 -7 -11 -16 -25
-19 -14 -4 -25 -13 -25 -21 0 -9 -12 -20 -27 -26 -23 -9 -30 -7 -45 13 -15 20
-19 21 -28 8 -5 -8 -10 -18 -10 -22 0 -5 -7 -8 -15 -8 -9 0 -19 -8 -22 -17 -4
-10 -17 -29 -30 -42 -13 -13 -23 -32 -23 -42 0 -11 -6 -19 -13 -19 -8 0 -19
-11 -25 -25 -6 -14 -16 -25 -21 -25 -5 0 -15 -15 -21 -34 -6 -19 -17 -37 -25
-40 -8 -3 -15 -12 -15 -20 0 -15 -18 -20 -109 -30 -24 -2 -48 -10 -52 -18 -5
-7 -9 -59 -9 -116 0 -100 1 -103 25 -112 14 -5 25 -14 25 -20 0 -6 6 -18 14
-25 9 -10 15 -59 20 -167 4 -84 12 -154 17 -156 5 -2 16 -28 25 -58 9 -31 22
-58 29 -60 7 -3 16 -23 19 -45 3 -22 13 -42 20 -45 8 -3 16 -17 20 -32 3 -15
23 -47 46 -71 22 -25 40 -50 40 -57 0 -6 7 -14 15 -18 8 -3 15 -10 15 -16 0
-16 52 -59 73 -60 10 0 17 -8 17 -19 0 -11 9 -23 20 -26 11 -3 20 -11 20 -16
0 -5 18 -16 40 -25 22 -9 40 -20 40 -24 0 -5 10 -10 23 -12 31 -4 37 -70 9
-107 -11 -15 -23 -42 -27 -61 -4 -19 -16 -41 -26 -48 -16 -11 -19 -27 -19
-107 0 -87 2 -96 25 -119 14 -14 25 -33 25 -43 0 -10 7 -27 15 -37 10 -14 15
-45 15 -103 0 -76 2 -83 20 -83 18 0 20 7 20 78 0 120 14 147 53 102 9 -11 28
-20 42 -20 14 0 28 -7 32 -16 3 -8 16 -20 29 -25 21 -7 24 -15 24 -64 0 -42 3
-55 15 -55 8 0 16 3 16 8 1 4 5 142 8 307 l6 300 30 -3 c17 -2 37 -13 47 -25
14 -18 27 -21 90 -22 140 -2 158 -4 158 -20 0 -11 -13 -14 -58 -14 -33 1 -69
-5 -82 -12 -18 -11 -24 -11 -27 -1 -9 25 -41 13 -45 -18 -5 -34 14 -57 44 -52
12 2 18 -3 18 -16 0 -26 -11 -34 -26 -21 -10 8 -15 8 -19 -2 -4 -12 -9 -134
-6 -179 0 -8 -2 -63 -5 -123 l-5 -107 515 0 516 0 0 63 c0 34 3 79 6 99 6 35
8 37 58 43 28 3 61 11 74 17 27 14 39 5 56 -47 l13 -37 5 39 c7 47 47 112 71
113 9 0 17 8 17 18 0 10 9 25 20 35 25 21 29 104 6 113 -8 3 -18 20 -22 37 -4
18 -15 38 -25 45 -11 8 -19 25 -19 42 0 16 -7 33 -16 38 -17 10 -37 93 -28
117 4 8 12 15 20 15 7 0 18 9 24 20 6 11 17 20 26 20 8 0 17 7 20 15 3 8 20
20 38 26 18 7 37 23 44 38 6 15 25 35 42 45 19 11 33 29 37 47 3 16 14 31 24
34 11 4 19 15 19 25 0 11 8 24 19 29 10 6 22 23 26 38 3 16 12 35 20 43 7 8
16 36 19 62 4 25 13 48 20 51 8 3 16 30 20 64 3 32 14 72 23 88 10 19 18 68
22 132 5 81 10 106 26 125 37 42 45 67 45 133 0 52 -5 72 -22 95 -19 26 -28
30 -69 30 -76 0 -98 13 -105 61 -6 37 -9 40 -32 36 -32 -6 -52 1 -52 19 0 10
12 14 39 14 22 0 46 3 55 6 17 7 22 34 6 34 -17 0 -11 29 9 39 10 6 22 26 25
46 4 19 11 35 16 35 6 0 10 6 10 13 0 7 9 31 20 52 13 25 24 75 30 135 5 52
13 105 16 118 6 19 3 22 -22 22 -27 -1 -84 -39 -84 -57 0 -9 -48 -33 -67 -33
-7 0 -13 -4 -13 -10 0 -5 -16 -10 -36 -10 -25 0 -35 4 -31 13 2 6 10 30 18 52
8 22 20 44 26 48 7 4 13 23 13 42 0 22 6 37 17 43 11 7 18 26 20 58 2 27 8 70
14 95 7 26 9 58 5 73 -8 31 -36 35 -43 6z m-1043 -550 c0 -13 -7 -20 -19 -20
-11 0 -23 -5 -26 -10 -4 -6 -22 -17 -41 -25 -19 -8 -34 -21 -34 -29 0 -9 -9
-16 -20 -16 -13 0 -20 7 -20 20 0 13 7 20 20 20 11 0 20 7 20 15 0 8 7 15 15
15 9 0 18 7 22 16 13 33 83 45 83 14z m-566 -26 c9 -3 16 -12 16 -20 0 -17
-95 -20 -106 -3 -14 23 49 39 90 23z m1158 -8 c27 -20 11 -26 -74 -26 -77 0
-89 5 -66 28 16 16 119 15 140 -2z m-1094 -49 c2 -12 -3 -17 -17 -17 -15 0
-21 6 -21 21 0 25 33 22 38 -4z m916 17 c19 -7 3 -44 -19 -44 -8 0 -15 -6 -15
-14 0 -8 -9 -18 -20 -21 -11 -3 -20 -12 -20 -20 0 -13 -35 -27 -44 -17 -15 14
-4 32 19 32 18 0 25 5 25 20 0 13 7 20 20 20 13 0 20 7 20 18 0 29 9 36 34 26z
m354 -19 c12 -14 33 -25 47 -25 14 0 29 -8 35 -20 6 -12 21 -20 35 -20 16 0
25 -6 25 -15 0 -9 -9 -15 -22 -15 -30 0 -52 15 -44 29 5 7 -6 11 -33 11 -30 0
-43 5 -51 20 -9 17 -21 20 -70 20 -33 0 -60 2 -60 4 0 2 -3 11 -6 20 -5 14 4
16 58 16 56 0 67 -3 86 -25z m-1440 3 c-3 -7 -11 -13 -18 -13 -7 0 -15 6 -17
13 -3 7 4 12 17 12 13 0 20 -5 18 -12z m712 -30 c0 -16 63 -78 79 -78 6 0 11
-8 11 -19 0 -10 11 -30 24 -44 13 -14 26 -31 28 -37 2 -6 19 -13 38 -16 29 -5
40 -1 63 20 15 14 32 26 38 26 5 0 9 7 9 15 0 8 7 15 15 15 9 0 20 11 25 25 5
14 15 25 23 25 7 0 21 10 31 21 17 20 25 21 123 17 85 -4 107 -8 115 -21 7
-13 23 -17 67 -17 47 0 63 -5 87 -25 16 -14 37 -25 47 -25 9 0 17 -6 17 -14 0
-8 10 -18 23 -21 27 -9 77 -54 77 -71 0 -6 -6 -14 -14 -17 -8 -3 -140 -6 -293
-6 -224 0 -284 -3 -308 -15 -16 -8 -70 -17 -120 -21 -49 -4 -99 -13 -110 -20
-11 -7 -68 -18 -125 -24 -117 -13 -264 -3 -315 22 -16 8 -74 18 -127 22 -54 4
-100 10 -103 15 -10 16 -86 22 -281 21 -151 0 -206 3 -219 13 -21 15 -12 36
14 36 10 0 26 9 36 20 10 11 28 20 40 20 12 0 31 9 43 20 12 11 27 20 35 20 8
0 26 11 41 25 16 15 39 25 57 25 16 0 42 9 57 20 21 16 44 21 94 21 57 1 72
-3 101 -25 19 -14 39 -26 44 -26 6 0 13 -9 16 -20 3 -11 14 -20 25 -20 11 0
22 -9 25 -20 3 -11 12 -20 21 -20 9 0 16 -6 16 -14 0 -16 53 -31 70 -21 5 3
10 13 10 21 0 8 9 14 20 14 11 0 20 7 20 15 0 9 10 19 23 24 12 5 42 27 66 50
24 23 50 41 58 41 7 0 13 6 13 14 0 19 15 24 78 25 35 1 52 -3 52 -11z m-500
-14 c0 -9 -7 -14 -17 -12 -25 5 -28 28 -4 28 12 0 21 -6 21 -16z m290 1 c0 -8
-9 -15 -20 -15 -11 0 -20 7 -20 15 0 8 9 15 20 15 11 0 20 -7 20 -15z m282 0
c0 -5 -5 -11 -11 -13 -6 -2 -11 4 -11 13 0 9 5 15 11 13 6 -2 11 -8 11 -13z
m-326 -44 c-8 -13 -56 -15 -56 -3 0 13 44 31 54 22 4 -5 5 -13 2 -19z m-203 4
c1 -5 -6 -11 -15 -13 -11 -2 -18 3 -18 13 0 17 30 18 33 0z m563 -12 c-10 -10
-19 5 -10 18 6 11 8 11 12 0 2 -7 1 -15 -2 -18z m-428 -30 c-2 -14 -15 -19
-51 -21 -42 -3 -47 -1 -47 17 0 18 6 21 51 21 43 0 50 -3 47 -17z m489 -3 c3
-11 14 -20 24 -20 12 0 19 7 19 20 0 13 7 20 20 20 13 0 20 -7 20 -20 0 -13
-7 -20 -20 -20 -13 0 -20 -7 -20 -20 0 -12 -7 -20 -16 -20 -20 0 -64 45 -64
66 0 21 31 17 37 -6z m748 0 c0 -22 -29 -18 -33 3 -3 14 1 18 15 15 10 -2 18
-10 18 -18z m45 -40 c0 -5 -5 -12 -11 -16 -14 -8 -33 11 -25 25 7 11 36 4 36
-9z m-1599 -230 c56 0 82 -4 93 -15 8 -8 37 -19 64 -25 47 -8 112 -54 112 -78
0 -5 7 -12 15 -16 21 -8 20 -133 0 -160 -8 -11 -15 -31 -15 -44 0 -13 -8 -35
-19 -48 -10 -13 -22 -44 -25 -69 -5 -27 -12 -45 -20 -45 -8 0 -17 -16 -20 -35
-5 -25 -14 -39 -32 -45 -13 -5 -24 -13 -24 -18 0 -17 -85 -72 -112 -72 -15 0
-37 -9 -48 -20 -18 -18 -33 -20 -165 -20 -127 0 -149 2 -177 20 -18 11 -39 20
-47 20 -8 0 -29 11 -47 25 -18 14 -37 25 -43 25 -6 0 -11 7 -11 16 0 9 -9 18
-19 21 -12 3 -21 17 -26 39 -3 19 -15 50 -27 69 -17 31 -20 53 -21 169 -1 132
-1 133 26 160 15 15 27 33 27 41 0 8 5 15 12 15 6 0 26 11 44 25 18 14 44 25
59 25 14 0 38 8 52 18 28 18 185 33 272 26 24 -2 79 -4 122 -4z m1391 -17 c9
-9 38 -18 63 -21 31 -3 51 -11 58 -23 7 -11 16 -19 22 -19 13 -1 65 -47 65
-58 0 -5 9 -17 20 -27 17 -16 20 -30 20 -114 -1 -62 -6 -110 -16 -136 -9 -22
-18 -56 -21 -75 -6 -38 -35 -84 -73 -115 -14 -11 -35 -30 -46 -42 -15 -16 -33
-23 -58 -23 -24 0 -36 -5 -36 -14 0 -22 -24 -26 -177 -26 -125 0 -149 3 -171
19 -15 10 -44 21 -64 25 -24 4 -38 13 -38 21 0 9 -9 15 -21 15 -12 0 -23 8
-26 19 -3 11 -13 21 -24 24 -10 3 -19 13 -19 22 0 9 -9 28 -20 42 -11 14 -20
34 -20 43 0 10 -9 20 -19 23 -13 3 -21 17 -26 48 -4 24 -14 55 -22 68 -10 16
-16 53 -17 116 l-1 92 49 47 c30 28 58 46 73 46 13 0 36 8 50 18 32 20 165 29
353 23 92 -2 130 -7 142 -18z m-828 -137 c20 -20 28 -40 36 -94 5 -38 16 -82
25 -98 8 -16 15 -46 15 -67 0 -47 14 -75 61 -125 9 -9 20 -32 24 -49 3 -18 11
-33 16 -33 5 0 15 -11 21 -25 6 -14 19 -25 30 -25 10 0 18 -7 18 -16 0 -9 9
-18 19 -21 11 -3 21 -13 24 -24 3 -10 13 -19 24 -19 10 0 32 -8 48 -17 17 -9
57 -19 90 -23 33 -4 89 -15 125 -25 75 -20 176 -17 230 8 19 8 57 17 84 20 31
3 52 11 58 21 13 22 88 22 88 0 0 -9 -9 -18 -20 -21 -11 -3 -20 -14 -20 -25 0
-11 -9 -22 -20 -25 -11 -3 -20 -12 -20 -21 0 -20 -49 -72 -67 -72 -7 0 -13 -7
-13 -15 0 -8 -7 -15 -15 -15 -8 0 -19 -8 -24 -19 -6 -10 -25 -21 -42 -25 -18
-3 -40 -12 -48 -19 -23 -19 -118 -54 -180 -67 -30 -6 -59 -15 -65 -19 -6 -5
-67 -14 -136 -20 -69 -6 -147 -18 -174 -26 -73 -22 -522 -21 -586 1 -25 9
-103 21 -175 26 -76 6 -136 15 -145 23 -8 7 -37 15 -65 19 -28 3 -53 13 -58
21 -4 8 -14 15 -20 15 -7 0 -20 9 -29 20 -10 11 -29 22 -44 26 -30 8 -74 49
-74 69 0 8 -6 15 -13 15 -14 0 -61 50 -70 75 -4 8 -13 15 -22 15 -8 0 -15 4
-15 9 0 5 -3 23 -6 40 -6 29 -5 31 25 31 19 0 38 -8 48 -20 12 -14 30 -20 58
-20 22 -1 65 -9 95 -20 67 -23 169 -25 225 -4 22 9 76 19 119 23 55 6 83 13
91 25 7 9 18 16 25 16 17 0 99 53 100 64 0 5 11 20 25 35 56 58 62 68 69 104
4 21 13 40 21 43 7 3 16 21 20 41 3 19 10 43 16 52 20 37 52 139 56 186 8 85
80 122 137 71z m694 -1048 c-2 -18 -10 -23 -34 -24 -17 -1 -39 5 -50 13 -16
12 -17 15 -4 23 8 5 32 10 53 10 34 0 38 -3 35 -22z m35 -72 c6 -15 -1 -26
-15 -26 -4 0 -8 9 -8 20 0 23 15 27 23 6z m-858 -36 c8 -13 -15 -13 -35 0 -12
8 -11 10 7 10 12 0 25 -4 28 -10z m-42 -32 c4 -9 8 -10 14 -2 5 7 23 9 53 4
l45 -7 -50 -3 c-27 -2 -58 -3 -67 -2 -10 1 -18 -3 -18 -8 0 -6 -4 -10 -10 -10
-14 0 -12 27 3 33 20 9 25 8 30 -5z m537 -13 c0 -18 -5 -25 -20 -25 -20 0 -28
28 -13 43 15 16 33 6 33 -18z m-1090 -50 c0 -8 -4 -15 -10 -15 -5 0 -10 7 -10
15 0 8 5 15 10 15 6 0 10 -7 10 -15z m30 -41 c0 -8 -4 -12 -10 -9 -5 3 -10 13
-10 21 0 8 5 12 10 9 6 -3 10 -13 10 -21z m350 6 c0 -11 -7 -20 -15 -20 -8 0
-15 2 -15 4 0 2 -3 11 -6 20 -4 12 0 16 15 16 14 0 21 -6 21 -20z m1000 4 c0
-9 8 -22 17 -29 15 -11 15 -13 -6 -24 -28 -15 -33 -11 -38 34 -3 26 0 35 12
35 8 0 15 -7 15 -16z m135 10 c13 -5 14 -8 3 -15 -21 -14 -48 -10 -48 6 0 16
17 19 45 9z m-329 -34 c10 0 14 -12 14 -40 0 -33 -3 -40 -20 -40 -18 0 -20 6
-19 53 0 28 3 46 6 40 2 -7 11 -13 19 -13z m-1266 -8 c0 -13 -12 -22 -22 -16
-10 6 -1 24 13 24 5 0 9 -4 9 -8z m863 -14 c-17 -8 -29 -8 -45 0 -20 9 -18 11
22 11 40 0 42 -2 23 -11z m-786 -33 c20 -20 16 -22 -32 -15 -39 6 -39 7 -15
18 32 14 29 14 47 -3z m33 -2 c0 -10 -4 -14 -8 -8 -4 6 -11 13 -16 18 -5 4 -2
7 7 7 10 0 17 -8 17 -17z m1170 -93 c0 -11 -4 -20 -10 -20 -5 0 -10 9 -10 20
0 11 5 20 10 20 6 0 10 -9 10 -20z m-113 -35 c0 -8 -9 -15 -19 -15 -10 0 -18
7 -18 15 0 8 8 15 18 15 10 0 19 -7 19 -15z m86 -31 c9 -10 -4 -34 -19 -34 -8
0 -14 9 -14 20 0 19 19 27 33 14z"/>
<path d="M635 2310 c-3 -5 1 -10 9 -10 9 0 16 5 16 10 0 6 -4 10 -9 10 -6 0
-13 -4 -16 -10z"/>
<path d="M600 2271 c0 -6 5 -13 10 -16 6 -3 10 1 10 9 0 9 -4 16 -10 16 -5 0
-10 -4 -10 -9z"/>
<path d="M2350 111 c0 -10 -3 -39 -6 -65 -6 -38 -4 -46 9 -46 18 0 31 50 23
90 -2 14 -5 28 -5 33 -2 16 -21 6 -21 -12z"/>
</g>
</svg>
